# xmcd
# 
# Track frame offsets:
#     150
#     18672
#     40052
#     58867
#     78742
#     98502
#     129811
#     156176
#     179577
#     197470
# 
# Disc length: 2909
# 
# Revision: 1
# Processed by: cddbd v1.5.2PL0 Copyright (c) Steve Scherf et al.
# Submitted via: fre:ac v1.0.31
# 
DISCID=7b0b5b0a
DTITLE=Peter Frampton - All Blues
DYEAR=2019
DGENRE=Blues
TTITLE0=I Just Want To Make Love To You
TTITLE1=She Caught The Katy
TTITLE2=Georgia On My Mind
TTITLE3=You Can't Judge a Book By The Cover
TTITLE4=Me And My Guitar
TTITLE5=All Blues
TTITLE6=The Thrill Is Gone
TTITLE7=Going Down Slow
TTITLE8=I'm a King Bee
TTITLE9=Same Old Blues
EXTD=
EXTT0=
EXTT1=
EXTT2=
EXTT3=
EXTT4=
EXTT5=
EXTT6=
EXTT7=
EXTT8=
EXTT9=
PLAYORDER=
